<?xml version="1.0" standalone="no"?>
<svg xmlns="http://www.w3.org/2000/svg" xmlns:xlink="http://www.w3.org/1999/xlink" width="1332pt" height="216pt" viewBox="0.00 0.00 1332.11 215.80">
<g id="graph0" class="graph" transform="translate(4,211.8000030517578) scale(1)" data-name="G">

<polygon fill="white" stroke="none" points="-4,4 -4,-211.8 1328.11,-211.8 1328.11,4 -4,4" style=""/>
<g id="clust1" class="cluster" data-name="cluster_0">

<polygon fill="none" stroke="black" stroke-dasharray="5,2" points="96.37,-17.8 96.37,-100.8 227.19,-100.8 227.19,-17.8 96.37,-17.8" style=""/>
<text text-anchor="middle" x="161.78" y="-84.2" font-family="Times,serif" font-size="14.00" style="">Control System</text>
</g>
<g id="clust2" class="cluster" data-name="cluster_1">

<polygon fill="none" stroke="black" stroke-dasharray="5,2" points="311.1,-26.8 311.1,-109.8 784.88,-109.8 784.88,-26.8 311.1,-26.8" style=""/>
<text text-anchor="middle" x="547.99" y="-93.2" font-family="Times,serif" font-size="14.00" style="">Actuation</text>
</g>
<!-- Controller -->
<g id="node1" class="node" pointer-events="visible" data-name="Controller">

<polygon fill="lightblue" stroke="black" points="219.09,-67.4 104.47,-67.4 104.47,-26.2 219.09,-26.2 219.09,-67.4" style=""/>
<text text-anchor="middle" x="161.78" y="-51" font-family="Helvetica,sans-Serif" font-size="14.00" style="">Flight Controller</text>
<text text-anchor="middle" x="161.78" y="-34.2" font-family="Helvetica,sans-Serif" font-size="14.00" style="">(PID)</text>
</g>
<!-- Power -->
<g id="node2" class="node" pointer-events="visible" data-name="Power">

<polygon fill="lightblue" stroke="black" points="419.16,-76.4 319.08,-76.4 319.08,-35.2 419.16,-35.2 419.16,-76.4" style=""/>
<text text-anchor="middle" x="369.12" y="-60" font-family="Helvetica,sans-Serif" font-size="14.00" style="">Power Bridge</text>
<text text-anchor="middle" x="369.12" y="-43.2" font-family="Helvetica,sans-Serif" font-size="14.00" style="">(ESC)</text>
</g>
<!-- Controller&#45;&gt;Power -->
<g id="edge4" class="edge" data-name="Controller-&gt;Power">

<path fill="none" stroke="black" d="M219.53,-51.3C219.53,-51.3 307.21,-51.3 307.21,-51.3" style=""/>
<polygon fill="black" stroke="black" points="307.21,-54.8 317.21,-51.3 307.21,-47.8 307.21,-54.8" style=""/>
<text text-anchor="middle" x="269.14" y="-53.8" font-family="Helvetica,sans-Serif" font-size="10.00" style=""> Voltage/PWM</text>
</g>
<!-- Motors -->
<g id="node3" class="node" pointer-events="visible" data-name="Motors">

<polygon fill="lightblue" stroke="black" points="591.29,-73.8 491.25,-73.8 491.25,-37.8 591.29,-37.8 591.29,-73.8" style=""/>
<text text-anchor="middle" x="541.27" y="-51.6" font-family="Helvetica,sans-Serif" font-size="14.00" style="">BLDC Motors</text>
</g>
<!-- Power&#45;&gt;Motors -->
<g id="edge5" class="edge" data-name="Power-&gt;Motors">

<path fill="none" stroke="black" d="M419.37,-55.8C419.37,-55.8 479.44,-55.8 479.44,-55.8" style=""/>
<polygon fill="black" stroke="black" points="479.44,-59.3 489.44,-55.8 479.44,-52.3 479.44,-59.3" style=""/>
<text text-anchor="middle" x="455.2" y="-58.8" font-family="Helvetica,sans-Serif" font-size="10.00" style=""> Current</text>
</g>
<!-- Blades -->
<g id="node4" class="node" pointer-events="visible" data-name="Blades">

<polygon fill="lightblue" stroke="black" points="776.89,-76.4 662.84,-76.4 662.84,-35.2 776.89,-35.2 776.89,-76.4" style=""/>
<text text-anchor="middle" x="719.87" y="-60" font-family="Helvetica,sans-Serif" font-size="14.00" style="">Blades</text>
<text text-anchor="middle" x="719.87" y="-43.2" font-family="Helvetica,sans-Serif" font-size="14.00" style="">(Aerodynamics)</text>
</g>
<!-- Motors&#45;&gt;Blades -->
<g id="edge6" class="edge" data-name="Motors-&gt;Blades">

<path fill="none" stroke="black" d="M591.49,-55.8C591.49,-55.8 650.95,-55.8 650.95,-55.8" style=""/>
<polygon fill="black" stroke="black" points="650.95,-59.3 660.95,-55.8 650.95,-52.3 650.95,-59.3" style=""/>
<text text-anchor="middle" x="627.07" y="-58.8" font-family="Helvetica,sans-Serif" font-size="10.00" style=""> Omega</text>
</g>
<!-- SumJunct -->
<g id="node6" class="node" pointer-events="visible" data-name="SumJunct">

<ellipse fill="white" stroke="black" cx="896.46" cy="-109.8" rx="18" ry="18" style=""/>
<text text-anchor="middle" x="896.46" y="-105.6" font-family="Helvetica,sans-Serif" font-size="14.00" style="">+</text>
</g>
<!-- Blades&#45;&gt;SumJunct -->
<g id="edge7" class="edge" data-name="Blades-&gt;SumJunct">

<path fill="none" stroke="black" d="M764.11,-76.86C764.11,-90.15 764.11,-104.8 764.11,-104.8 764.11,-104.8 867.37,-104.8 867.37,-104.8" style=""/>
<polygon fill="black" stroke="black" points="867.37,-108.3 877.37,-104.8 867.37,-101.3 867.37,-108.3" style=""/>
<text text-anchor="middle" x="827.67" y="-99.8" font-family="Helvetica,sans-Serif" font-size="10.00" style=""> Thrust/Torque</text>
</g>
<!-- Mixer -->
<g id="node5" class="node" pointer-events="visible" data-name="Mixer">

<ellipse fill="lightblue" stroke="black" cx="33.69" cy="-85.8" rx="0" ry="0" style=""/>
</g>
<!-- Dynamics -->
<g id="node7" class="node" pointer-events="visible" data-name="Dynamics">

<polygon fill="lightblue" stroke="black" points="1162.18,-146.8 1031.41,-146.8 1031.41,-38.8 1162.18,-38.8 1162.18,-146.8" style=""/>
<text text-anchor="middle" x="1096.8" y="-97" font-family="Helvetica,sans-Serif" font-size="14.00" style="">6DOF Quadcopter</text>
<text text-anchor="middle" x="1096.8" y="-80.2" font-family="Helvetica,sans-Serif" font-size="14.00" style="">Dynamics</text>
</g>
<!-- SumJunct&#45;&gt;Dynamics -->
<g id="edge10" class="edge" data-name="SumJunct-&gt;Dynamics">

<path fill="none" stroke="black" stroke-width="2" d="M914.95,-109.8C914.95,-109.8 1018.28,-109.8 1018.28,-109.8" style=""/>
<polygon fill="black" stroke="black" stroke-width="2" points="1018.28,-113.3 1028.28,-109.8 1018.28,-106.3 1018.28,-113.3" style=""/>
<text text-anchor="middle" x="973.03" y="-101.8" font-family="Helvetica,sans-Serif" font-size="10.00" style=""> Net Force/Torque</text>
</g>
<!-- Sensors -->
<g id="node8" class="node" pointer-events="visible" data-name="Sensors">

<polygon fill="lightgrey" stroke="black" points="1324.33,-41.4 1239.44,-41.4 1239.44,-0.2 1324.33,-0.2 1324.33,-41.4" style=""/>
<text text-anchor="middle" x="1281.88" y="-25" font-family="Helvetica,sans-Serif" font-size="14.00" style="">Sensors</text>
<text text-anchor="middle" x="1281.88" y="-8.2" font-family="Helvetica,sans-Serif" font-size="14.00" style="">(IMU/GPS)</text>
</g>
<!-- Dynamics&#45;&gt;Sensors -->
<g id="edge1" class="edge" data-name="Dynamics-&gt;Sensors">

<path fill="none" stroke="black" d="M1097.11,-38.51C1097.11,-34.51 1097.11,-32 1097.11,-32 1097.11,-32 1227.51,-32 1227.51,-32" style=""/>
<polygon fill="black" stroke="black" points="1227.51,-35.5 1237.51,-32 1227.51,-28.5 1227.51,-35.5" style=""/>
<text text-anchor="middle" x="1200.83" y="-87.8" font-family="Helvetica,sans-Serif" font-size="10.00" style=""> State</text>
<text text-anchor="middle" x="1200.83" y="-75.8" font-family="Helvetica,sans-Serif" font-size="10.00" style="">(Pos, Att)</text>
</g>
<!-- Sensors&#45;&gt;Controller -->
<g id="edge2" class="edge" data-name="Sensors-&gt;Controller">

<path fill="none" stroke="blue" d="M1239,-29C1239,-29 230.95,-29 230.95,-29" style=""/>
<polygon fill="blue" stroke="blue" points="230.95,-25.5 220.95,-29 230.95,-32.5 230.95,-25.5" style=""/>
<text text-anchor="middle" x="719.87" y="-7.8" font-family="Helvetica,sans-Serif" font-size="10.00" style=""> Measured State</text>
</g>
<!-- Input -->
<g id="node9" class="node" pointer-events="visible" data-name="Input">

<polygon fill="none" stroke="none" points="67.56,-67.4 -0.19,-67.4 -0.19,-26.2 67.56,-26.2 67.56,-67.4" style=""/>
<text text-anchor="middle" x="33.69" y="-51" font-family="Helvetica,sans-Serif" font-size="14.00" style="">Desired</text>
<text text-anchor="middle" x="33.69" y="-34.2" font-family="Helvetica,sans-Serif" font-size="14.00" style="">Setpoint</text>
</g>
<!-- Input&#45;&gt;Controller -->
<g id="edge3" class="edge" data-name="Input-&gt;Controller">

<path fill="none" stroke="black" d="M67.34,-46.8C67.34,-46.8 92.57,-46.8 92.57,-46.8" style=""/>
<polygon fill="black" stroke="black" points="92.57,-50.3 102.57,-46.8 92.57,-43.3 92.57,-50.3" style=""/>
</g>
<!-- Gravity -->
<g id="node10" class="node" pointer-events="visible" data-name="Gravity">

<polygon fill="none" stroke="none" points="750.21,-207.8 689.53,-207.8 689.53,-171.8 750.21,-171.8 750.21,-207.8" style=""/>
<text text-anchor="middle" x="719.87" y="-185.6" font-family="Helvetica,sans-Serif" font-size="14.00" style="">Gravity</text>
</g>
<!-- Gravity&#45;&gt;SumJunct -->
<g id="edge8" class="edge" data-name="Gravity-&gt;SumJunct">

<path fill="none" stroke="black" d="M749.93,-189.8C800.5,-189.8 897.11,-189.8 897.11,-189.8 897.11,-189.8 897.11,-139.47 897.11,-139.47" style=""/>
<polygon fill="black" stroke="black" points="900.61,-139.47 897.11,-129.47 893.61,-139.47 900.61,-139.47" style=""/>
</g>
<!-- Drag -->
<g id="node11" class="node" pointer-events="visible" data-name="Drag">

<polygon fill="none" stroke="none" points="746.87,-153.8 692.87,-153.8 692.87,-117.8 746.87,-117.8 746.87,-153.8" style=""/>
<text text-anchor="middle" x="719.87" y="-131.6" font-family="Helvetica,sans-Serif" font-size="14.00" style="">Drag</text>
</g>
<!-- Drag&#45;&gt;SumJunct -->
<g id="edge9" class="edge" data-name="Drag-&gt;SumJunct">

<path fill="none" stroke="black" d="M746.69,-122.8C746.69,-122.8 872.12,-122.8 872.12,-122.8" style=""/>
<polygon fill="black" stroke="black" points="872.12,-126.3 882.12,-122.8 872.12,-119.3 872.12,-126.3" style=""/>
</g>
</g>
</svg>