<?xml version="1.0" standalone="no"?>
<svg xmlns="http://www.w3.org/2000/svg" xmlns:xlink="http://www.w3.org/1999/xlink" width="544pt" height="124pt" viewBox="0.00 0.00 544.36 123.70">
<g id="graph0" class="graph" transform="translate(-0.2778778076171875,120.76947021484375) scale(1)" data-name="G">

<polygon fill="white" stroke="none" points="-4,4 -4,-119.7 540.36,-119.7 540.36,4 -4,4" style=""/>
<!-- Scope -->
<g id="node1" class="node" pointer-events="visible" data-name="Scope">

<path fill="none" stroke="black" d="M320.83,-24.7C320.83,-24.7 350.83,-24.7 350.83,-24.7 356.83,-24.7 362.83,-30.7 362.83,-36.7 362.83,-36.7 362.83,-48.7 362.83,-48.7 362.83,-54.7 356.83,-60.7 350.83,-60.7 350.83,-60.7 320.83,-60.7 320.83,-60.7 314.83,-60.7 308.83,-54.7 308.83,-48.7 308.83,-48.7 308.83,-36.7 308.83,-36.7 308.83,-30.7 314.83,-24.7 320.83,-24.7" style=""/>
<text text-anchor="middle" x="335.83" y="-38.6" font-family="Times,serif" font-size="14.00" style="">Scope</text>
</g>
<!-- Integrator -->
<g id="node2" class="node" pointer-events="visible" data-name="Integrator">

<ellipse fill="none" stroke="black" cx="49.11" cy="-42.7" rx="49.22" ry="18" style=""/>
<text text-anchor="middle" x="49.11" y="-38.5" font-family="Times,serif" font-size="14.00" style="">Integrator</text>
</g>
<!-- Controller -->
<g id="node3" class="node" pointer-events="visible" data-name="Controller">

<ellipse fill="none" stroke="black" cx="184.95" cy="-96.7" rx="50.96" ry="18" style=""/>
<text text-anchor="middle" x="184.95" y="-92.5" font-family="Times,serif" font-size="14.00" style="">Controller</text>
</g>
<!-- Integrator&#45;&gt;Controller -->
<g id="edge1" class="edge" data-name="Integrator-&gt;Controller">

<path fill="none" stroke="black" d="M83.19,-56.05C100.27,-62.94 121.35,-71.45 139.8,-78.89" style=""/>
<polygon fill="black" stroke="black" points="138.33,-82.07 148.91,-82.57 140.95,-75.58 138.33,-82.07" style=""/>
</g>
<!-- Selector -->
<g id="node6" class="node" pointer-events="visible" data-name="Selector">

<ellipse fill="none" stroke="black" cx="184.95" cy="-42.7" rx="42.85" ry="18" style=""/>
<text text-anchor="middle" x="184.95" y="-38.5" font-family="Times,serif" font-size="14.00" style="">Selector</text>
</g>
<!-- Integrator&#45;&gt;Selector -->
<g id="edge5" class="edge" data-name="Integrator-&gt;Selector">

<path fill="none" stroke="black" d="M98.81,-42.7C109.01,-42.7 119.84,-42.7 130.22,-42.7" style=""/>
<polygon fill="black" stroke="black" points="130.18,-46.2 140.18,-42.7 130.18,-39.2 130.18,-46.2" style=""/>
</g>
<!-- PowerSystem -->
<g id="node4" class="node" pointer-events="visible" data-name="PowerSystem">

<ellipse fill="none" stroke="black" cx="335.83" cy="-97.7" rx="64.3" ry="18" style=""/>
<text text-anchor="middle" x="335.83" y="-93.5" font-family="Times,serif" font-size="14.00" style="">PowerSystem</text>
</g>
<!-- Controller&#45;&gt;PowerSystem -->
<g id="edge2" class="edge" data-name="Controller-&gt;PowerSystem">

<path fill="none" stroke="black" d="M236.35,-97.04C243.98,-97.09 251.98,-97.14 259.99,-97.2" style=""/>
<polygon fill="black" stroke="black" points="259.74,-100.7 269.76,-97.26 259.79,-93.7 259.74,-100.7" style=""/>
</g>
<!-- Dynamics -->
<g id="node5" class="node" pointer-events="visible" data-name="Dynamics">

<ellipse fill="none" stroke="black" cx="486.17" cy="-46.7" rx="50.39" ry="18" style=""/>
<text text-anchor="middle" x="486.17" y="-42.5" font-family="Times,serif" font-size="14.00" style="">Dynamics</text>
</g>
<!-- PowerSystem&#45;&gt;Dynamics -->
<g id="edge3" class="edge" data-name="PowerSystem-&gt;Dynamics">

<path fill="none" stroke="black" d="M377.75,-83.63C396.48,-77.19 418.77,-69.53 438.18,-62.86" style=""/>
<polygon fill="black" stroke="black" points="439.17,-66.22 447.49,-59.65 436.9,-59.6 439.17,-66.22" style=""/>
</g>
<!-- Dynamics&#45;&gt;Integrator -->
<g id="edge4" class="edge" data-name="Dynamics-&gt;Integrator">

<path fill="none" stroke="black" d="M454.77,-32.24C438.85,-25.45 418.78,-18.12 399.98,-14.7 283.76,6.41 250.84,2.99 134.22,-15.7 120.98,-17.82 106.98,-21.64 94.28,-25.75" style=""/>
<polygon fill="black" stroke="black" points="93.28,-22.4 84.94,-28.92 95.53,-29.03 93.28,-22.4" style=""/>
</g>
<!-- Selector&#45;&gt;Scope -->
<g id="edge6" class="edge" data-name="Selector-&gt;Scope">

<path fill="none" stroke="black" d="M228.21,-42.7C250.01,-42.7 276.38,-42.7 297.44,-42.7" style=""/>
<polygon fill="black" stroke="black" points="297.32,-46.2 307.32,-42.7 297.32,-39.2 297.32,-46.2" style=""/>
</g>
</g>
</svg>